HIERARCHY
ROOT Hips
{
	OFFSET 0.000000 0.000000 0.000000
	CHANNELS 6 Xposition Yposition Zposition Zrotation Yrotation Xrotation 
	JOINT LowerBack
	{
		OFFSET 0.000000 0.000000 0.000000
		CHANNELS 3 Zrotation Yrotation Xrotation
		JOINT Spine
		{
			OFFSET 0.028270 2.035590 -0.193380
			CHANNELS 3 Zrotation Yrotation Xrotation
			JOINT Spine1
			{
				OFFSET 0.056720 2.048850 -0.042750
				CHANNELS 3 Zrotation Yrotation Xrotation
				JOINT Neck
				{
					OFFSET 0.000000 0.000000 0.000000
					CHANNELS 3 Zrotation Yrotation Xrotation
					JOINT Neck1
					{
						OFFSET -0.054170 1.746240 0.172020
						CHANNELS 3 Zrotation Yrotation Xrotation
						JOINT Head
						{
							OFFSET 0.104070 1.761360 -0.123970
							CHANNELS 3 Zrotation Yrotation Xrotation
							End Site
							{
								OFFSET 0.000000 0.000000 0.000000
							}
						}
					}
				}
				JOINT LeftShoulder
				{
					OFFSET 0.000000 0.000000 0.000000
					CHANNELS 3 Zrotation Yrotation Xrotation
					JOINT LeftArm
					{
						OFFSET 3.362410 1.200890 -0.311210
						CHANNELS 3 Zrotation Yrotation Xrotation
						JOINT LeftForeArm
						{
							OFFSET 4.983000 -0.000000 -0.000000
							CHANNELS 3 Zrotation Yrotation Xrotation
							JOINT LeftHand
							{
								OFFSET 3.483560 -0.000000 -0.000000
								CHANNELS 3 Zrotation Yrotation Xrotation
								JOINT LeftFingerBase
								{
									OFFSET 0.000000 0.000000 0.000000
									CHANNELS 3 Zrotation Yrotation Xrotation
									JOINT LeftHandIndex1
									{
										OFFSET 0.715260 -0.000000 -0.000000
										CHANNELS 3 Zrotation Yrotation Xrotation
										End Site
										{
											OFFSET 0.000000 0.000000 0.000000
										}
									}
								}
								JOINT LThumb
								{
									OFFSET 0.000000 0.000000 0.000000
									CHANNELS 3 Zrotation Yrotation Xrotation
									End Site
									{
										OFFSET 0.000000 0.000000 0.000000
									}
								}
							}
						}
					}
				}
				JOINT RightShoulder
				{
					OFFSET 0.000000 0.000000 0.000000
					CHANNELS 3 Zrotation Yrotation Xrotation
					JOINT RightArm
					{
						OFFSET -3.136600 1.374050 -0.404650
						CHANNELS 3 Zrotation Yrotation Xrotation
						JOINT RightForeArm
						{
							OFFSET -5.241900 -0.000000 -0.000000
							CHANNELS 3 Zrotation Yrotation Xrotation
							JOINT RightHand
							{
								OFFSET -3.444170 -0.000000 -0.000000
								CHANNELS 3 Zrotation Yrotation Xrotation
								JOINT RightFingerBase
								{
									OFFSET 0.000000 0.000000 0.000000
									CHANNELS 3 Zrotation Yrotation Xrotation
									JOINT RightHandIndex1
									{
										OFFSET -0.622530 -0.000000 -0.000000
										CHANNELS 3 Zrotation Yrotation Xrotation
										End Site
										{
											OFFSET 0.000000 0.000000 0.000000
										}
									}
								}
								JOINT RThumb
								{
									OFFSET 0.000000 0.000000 0.000000
									CHANNELS 3 Zrotation Yrotation Xrotation
									End Site
									{
										OFFSET 0.000000 0.000000 0.000000
									}
								}
							}
						}
					}
				}
			}
		}
	}
}
}
MOTION
Frames: 12
Frame Time: 0.008333
-11.190682 16.796959 -1.192661 -22.926053 85.029693 -4.237554 -2.538423 0.658054 2.719966 -1.170314 0.834312 -2.231238 -5.230186 0.777740 1.548500 7.114427 -2.458379 -6.058423 -2.997900 -0.234296 0.250417 0.000000 0.000000 0.000000 -8.925080 10.838367 2.381135 -59.152066 7.937883 11.315052 -4.378493 -29.525401 -0.020423 -12.520699 4.041606 -0.446285 -0.107644 -0.060357 -0.000000 0.000000 0.000000 0.000000 0.000000 0.000000 0.000000 11.325687 1.351674 2.689759 35.516262 26.597812 17.236532 2.006254 54.914813 0.027189 11.858024 8.208597 0.879909 -0.081335 -0.188874 0.000000 0.000000 0.000000 0.000000 0.000000 0.000000 0.000000 
-10.991040 16.789082 -1.201737 -15.110017 84.925659 3.168938 -3.420127 0.576727 2.936788 -1.344658 0.794582 -2.207023 -5.263197 0.738877 1.488441 7.293820 -2.463691 -6.013710 -3.010679 -0.235411 0.258582 0.000000 0.000000 0.000000 -8.746740 10.546617 2.406798 -59.222960 7.841144 11.097966 -4.416812 -28.987616 -0.020451 -12.436202 4.137566 -0.453490 -0.108965 -0.059573 -0.000000 0.000000 0.000000 0.000000 0.000000 0.000000 0.000000 11.547508 1.300673 2.680614 35.993725 26.158873 17.345227 2.034529 54.581665 0.027058 11.705759 8.220754 0.869326 -0.076508 -0.187128 -0.000000 0.000000 0.000000 0.000000 0.000000 0.000000 0.000000 
-10.791650 16.784843 -1.211352 -8.565871 84.860259 9.338359 -4.194459 0.467539 3.132691 -1.498775 0.720906 -2.184113 -5.300516 0.666134 1.434785 7.464852 -2.469012 -5.954982 -3.026734 -0.236953 0.270633 0.000000 0.000000 0.000000 -8.557560 10.234144 2.433286 -59.285950 7.683096 10.930055 -4.453756 -28.446961 -0.020381 -12.346746 4.238214 -0.460792 -0.110323 -0.058300 -0.000000 0.000000 0.000000 0.000000 0.000000 0.000000 0.000000 11.769219 1.224565 2.656546 36.547365 25.682510 17.489293 2.064346 54.220652 0.026806 11.558710 8.239508 0.859741 -0.071672 -0.184688 -0.000000 0.000000 0.000000 0.000000 0.000000 0.000000 0.000000 
-10.592436 16.784069 -1.221928 -3.525107 84.793648 14.046005 -4.823989 0.351873 3.296555 -1.626691 0.633786 -2.165328 -5.344938 0.579898 1.387411 7.621670 -2.474788 -5.882307 -3.045528 -0.238913 0.287043 0.000000 0.000000 0.000000 -8.371009 9.914192 2.455187 -59.337231 7.480684 10.801554 -4.486621 -27.933499 -0.020249 -12.254882 4.342353 -0.468190 -0.111573 -0.056737 -0.000000 0.000000 0.000000 0.000000 0.000000 0.000000 0.000000 11.981310 1.135258 2.619827 37.171575 25.170716 17.663835 2.095767 53.837519 0.026465 11.424366 8.263178 0.851556 -0.066937 -0.181637 -0.000000 0.000000 0.000000 0.000000 0.000000 0.000000 0.000000 
-10.393453 16.786640 -1.233413 0.260642 84.708773 17.541053 -5.329371 0.238966 3.423604 -1.731953 0.544000 -2.150740 -5.396083 0.490921 1.350921 7.765441 -2.486561 -5.802331 -3.066354 -0.241149 0.306081 0.000000 0.000000 0.000000 -8.188160 9.621687 2.469941 -59.373599 7.208024 10.721931 -4.515635 -27.453297 -0.020051 -12.160930 4.442856 -0.474886 -0.112729 -0.054911 -0.000000 0.000000 0.000000 0.000000 0.000000 0.000000 0.000000 12.184525 1.033885 2.569918 37.858397 24.633297 17.860087 2.127677 53.438850 0.026055 11.306375 8.289458 0.844670 -0.062455 -0.178082 0.000000 0.000000 0.000000 0.000000 0.000000 0.000000 0.000000 
-10.194763 16.792596 -1.246155 2.922267 84.599734 19.953654 -5.719587 0.133420 3.512113 -1.815338 0.456971 -2.140956 -5.452740 0.404537 1.324780 7.893303 -2.507048 -5.718230 -3.088425 -0.243564 0.327040 0.000000 0.000000 0.000000 -8.018297 9.364620 2.476843 -59.391105 6.871168 10.681917 -4.540177 -27.030783 -0.019792 -12.066383 4.535245 -0.480579 -0.113789 -0.052901 -0.000000 0.000000 0.000000 0.000000 0.000000 0.000000 0.000000 12.372897 0.922230 2.507780 38.604079 24.070327 18.064997 2.159801 53.029974 0.025591 11.206290 8.316139 0.839182 -0.058269 -0.174133 0.000000 0.000000 0.000000 0.000000 0.000000 0.000000 0.000000 
-9.996468 16.802057 -1.260588 4.564931 84.470092 21.387972 -5.996505 0.036271 3.564378 -1.876225 0.373981 -2.135859 -5.513080 0.322007 1.307722 8.000697 -2.538938 -5.633703 -3.110629 -0.246029 0.349026 0.000000 0.000000 0.000000 -7.874385 9.146785 2.476632 -59.385114 6.475597 10.672945 -4.559809 -26.689279 -0.019474 -11.973062 4.613987 -0.484668 -0.114767 -0.050743 -0.000000 0.000000 0.000000 0.000000 0.000000 0.000000 0.000000 12.536795 0.800372 2.434261 39.406871 23.480577 18.260997 2.192158 52.612683 0.025098 11.121934 8.341118 0.834593 -0.054359 -0.169892 0.000000 0.000000 0.000000 0.000000 0.000000 0.000000 0.000000 
-9.798824 16.815276 -1.276677 5.485648 84.334140 22.134886 -6.177434 -0.056766 3.589316 -1.917487 0.291426 -2.134296 -5.575433 0.239772 1.296615 8.087883 -2.580782 -5.551081 -3.132161 -0.248442 0.371265 0.000000 0.000000 0.000000 -7.758714 8.963193 2.472379 -59.351920 6.027693 10.684677 -4.574984 -26.447412 -0.019087 -11.882104 4.673189 -0.486752 -0.115702 -0.048429 -0.000000 0.000000 0.000000 0.000000 0.000000 0.000000 0.000000 12.672238 0.670363 2.350071 40.270775 22.851506 18.420762 2.224707 52.191431 0.024588 11.052809 8.360297 0.830604 -0.050720 -0.165456 0.000000 0.000000 0.000000 0.000000 0.000000 0.000000 0.000000 
-9.602165 16.832567 -1.294257 5.916861 84.204017 22.420963 -6.276751 -0.149520 3.597663 -1.941993 0.205892 -2.133926 -5.639320 0.154606 1.291444 8.159616 -2.640745 -5.476689 -3.153184 -0.250718 0.391780 0.000000 0.000000 0.000000 -7.670860 8.813903 2.466357 -59.287601 5.521885 10.713243 -4.586201 -26.316749 -0.018612 -11.794745 4.707074 -0.486334 -0.116627 -0.045937 -0.000000 0.000000 0.000000 0.000000 0.000000 0.000000 0.000000 12.787607 0.523554 2.257216 41.184799 22.190131 18.529923 2.257320 51.766823 0.024075 10.989319 8.374543 0.826514 -0.047247 -0.160955 0.000000 0.000000 0.000000 0.000000 0.000000 0.000000 0.000000 
-9.406770 16.854302 -1.313339 5.950860 84.086706 22.334223 -6.298409 -0.242902 3.598518 -1.950748 0.116362 -2.133273 -5.704764 0.065626 1.290551 8.218806 -2.725067 -5.414960 -3.173744 -0.252795 0.409235 0.000000 0.000000 0.000000 -7.613434 8.691375 2.460522 -59.187842 4.963823 10.752638 -4.593420 -26.311754 -0.018046 -11.712486 4.711323 -0.482909 -0.117546 -0.043287 -0.000000 0.000000 0.000000 0.000000 0.000000 0.000000 0.000000 12.887636 0.354503 2.158562 42.141377 21.500514 18.573909 2.290448 51.335754 0.023573 10.920918 8.385025 0.821725 -0.043785 -0.156519 0.000000 0.000000 0.000000 0.000000 0.000000 0.000000 0.000000 
-9.212966 16.880681 -1.333936 5.598833 83.986617 21.883279 -6.240070 -0.335467 3.597682 -1.943449 0.023877 -2.133625 -5.771575 -0.026278 1.284831 8.263109 -2.811893 -5.360105 -3.192866 -0.254672 0.425224 0.000000 0.000000 0.000000 -7.587994 8.574994 2.459266 -59.050337 4.377376 10.794240 -4.596697 -26.447968 -0.017388 -11.638146 4.683230 -0.476680 -0.118471 -0.040484 -0.000000 0.000000 0.000000 0.000000 0.000000 0.000000 0.000000 12.958500 0.189329 2.055674 43.157624 20.735974 18.502942 2.324615 50.906320 0.023116 10.859197 8.383284 0.816235 -0.040443 -0.152208 0.000000 0.000000 0.000000 0.000000 0.000000 0.000000 0.000000 
-9.021027 16.911872 -1.355699 4.936950 83.909297 21.140463 -6.111355 -0.428307 3.603318 -1.922586 -0.072409 -2.132103 -5.841271 -0.121655 1.278873 8.303047 -2.925172 -5.321678 -3.211931 -0.256321 0.436912 0.000000 0.000000 0.000000 -7.587789 8.465550 2.462067 -58.871721 3.752807 10.845748 -4.596022 -26.727200 -0.016638 -11.574098 4.621059 -0.467344 -0.119381 -0.037567 -0.000000 0.000000 0.000000 0.000000 0.000000 0.000000 0.000000 13.024972 0.001763 1.952697 44.204492 19.938028 18.334838 2.360146 50.466910 0.022706 10.781435 8.380464 0.809447 -0.036937 -0.148174 0.000000 0.000000 0.000000 0.000000 0.000000 0.000000 0.000000 
